<svg width="146" height="41" viewBox="0 0 146 41" fill="none" xmlns="http://www.w3.org/2000/svg">
<path d="M13.5122 33.5486V11.8811H21.2677V6.88403H0V11.8811H7.79548V33.5486H13.5122Z" fill="white"/>
<path d="M55.3292 33.5486L49.2927 23.3945C52.171 22.7149 55.1692 20.1563 55.1692 15.479C55.1692 10.5219 51.7312 6.88403 46.1745 6.88403H33.7017V33.5486H39.3784V24.0741H43.536L48.773 33.5486H55.3292ZM45.3749 19.077H39.3784V11.8811H45.3749C47.6136 11.8811 49.3326 13.2403 49.3326 15.4391C49.3326 17.7178 47.6136 19.077 45.3749 19.077Z" fill="white"/>
<path d="M117.791 33.5486V6.88403H109.796L103.319 23.5544L96.843 6.88403H88.8877V33.5486H94.5644V14.3197L102.08 33.5486H104.559L112.074 14.3197V33.5486H117.791Z" fill="white"/>
<path d="M146 6.88403H127.084V12.2231H138.525L127.084 28.6979V33.6556H146V28.3166H134.483L146 11.8417V6.88403Z" fill="white"/>
<path fill-rule="evenodd" clip-rule="evenodd" d="M66.0039 3.94138C66.0039 1.76461 67.7685 0 69.9453 0H73.8867C76.0634 0 77.828 1.76461 77.828 3.94138V7.88275H76.7019V3.94138C76.7019 2.38655 75.4415 1.12611 73.8867 1.12611H69.9453C68.3905 1.12611 67.13 2.38655 67.13 3.94138V6.75664H73.5439V7.88275H66.0039V3.94138Z" fill="white"/>
<path fill-rule="evenodd" clip-rule="evenodd" d="M77.8281 36.5984C77.8281 38.7752 76.0635 40.5398 73.8868 40.5398H69.9454C67.7686 40.5398 66.004 38.7752 66.004 36.5984V33.2201H67.1301V36.5984C67.1301 38.1532 68.3905 39.4137 69.9454 39.4137H73.8868C75.4416 39.4137 76.702 38.1532 76.702 36.5984V34.3462H70.2881V33.2201H77.8281V36.5984Z" fill="white"/>
<path fill-rule="evenodd" clip-rule="evenodd" d="M77.828 14.154V8.4458L66.0039 18.7749V24.4831L77.828 14.154ZM66.0039 26.3859V32.094L77.828 21.7649V16.0567L66.0039 26.3859ZM76.7019 18.5357L67.13 26.8974V29.6151L76.7019 21.2534V18.5357ZM67.13 22.0041L76.7019 13.6425V10.9248L67.13 19.2865V22.0041Z" fill="#FF78B9"/>
<path fill-rule="evenodd" clip-rule="evenodd" d="M66.0039 9.00903L73.7971 9.00904V9.68405L66.0039 16.4341V9.00903ZM67.13 13.9689L71.5563 10.1351L67.13 10.1351V13.9689ZM67.13 26.869V29.6075L76.7019 21.2063V18.4677L67.13 26.869ZM66.0039 26.359V32.0942L77.828 21.7162V15.981L66.0039 26.359Z" fill="#31E8F3"/>
<path fill-rule="evenodd" clip-rule="evenodd" d="M72.2755 30.7916L76.7017 30.7916V26.9578L72.2755 30.7916ZM70.0347 31.2427L77.8278 24.4927V31.9177L70.0347 31.9177V31.2427Z" fill="#FF78B9"/>
</svg>
