<svg width="35" height="35" viewBox="0 0 35 35" fill="none" xmlns="http://www.w3.org/2000/svg">
<g clip-path="url(#clip0)">
<path d="M17.289 2.43474C17.0559 2.18546 16.7132 2.06933 16.3763 2.12505C16.0395 2.18069 15.7526 2.40089 15.6119 2.71195L6.39329 22.7284C5.98027 22.6202 5.55472 22.5444 5.10826 22.5444C2.2917 22.5444 0 24.8361 0 27.6527C0 30.4692 2.2917 32.7609 5.10826 32.7609C7.92482 32.7609 10.2165 30.4692 10.2165 27.6527C10.2165 26.8122 9.99305 26.0304 9.63186 25.3304L17.9562 7.05349C18.7434 5.47899 18.4223 3.64683 17.289 2.43474ZM5.10826 30.7176C3.41818 30.7176 2.0433 29.3427 2.0433 27.6527C2.0433 25.9626 3.41818 24.5877 5.10826 24.5877C6.79835 24.5877 8.17322 25.9626 8.17322 27.6527C8.17322 29.3427 6.79835 30.7176 5.10826 30.7176Z" fill="url(#paint0_linear)"/>
<path d="M17.368 22.5442C16.9216 22.5442 16.496 22.62 16.083 22.7281L14.5639 19.4296L12.3607 24.2677L12.8445 25.33C12.4832 26.0301 12.2598 26.812 12.2598 27.6524C12.2598 30.469 14.5515 32.7607 17.368 32.7607C20.1846 32.7607 22.4763 30.469 22.4763 27.6524C22.4763 24.8359 20.1846 22.5442 17.368 22.5442ZM17.368 30.7174C15.6779 30.7174 14.3031 29.3425 14.3031 27.6524C14.3031 25.9623 15.6779 24.5875 17.368 24.5875C19.0581 24.5875 20.433 25.9623 20.433 27.6524C20.433 29.3425 19.0581 30.7174 17.368 30.7174Z" fill="#ED8383"/>
<path d="M31.8077 2.11133C30.9092 2.11133 30.5834 2.11133 30.4789 2.11133C30.4468 2.11133 30.4355 2.11133 30.4349 2.11133C30.2444 2.11133 29.32 2.11133 25.5417 2.11133C24.977 2.11133 24.52 2.56828 24.52 3.13298C24.52 3.69768 24.977 4.15463 25.5417 4.15463H28.7428V6.19794H25.5417C24.977 6.19794 24.52 6.65489 24.52 7.21959C24.52 7.78429 24.977 8.24124 25.5417 8.24124H28.7428V10.2845H25.5417C24.977 10.2845 24.52 10.7415 24.52 11.3062C24.52 11.8709 24.977 12.3278 25.5417 12.3278H28.7428V14.3712H25.5417C24.977 14.3712 24.52 14.8281 24.52 15.3928C24.52 15.9575 24.977 16.4145 25.5417 16.4145H28.7428V18.4578H25.5417C24.977 18.4578 24.52 18.9147 24.52 19.4794C24.52 20.0441 24.977 20.5011 25.5417 20.5011H28.7428V22.5444H25.5417C24.977 22.5444 24.52 23.0013 24.52 23.566C24.52 24.1307 24.977 24.5877 25.5417 24.5877H28.7428V26.631H25.5417C24.977 26.631 24.52 27.0879 24.52 27.6526C24.52 28.2173 24.977 28.6743 25.5417 28.6743H28.7428V30.7176H25.5417C24.977 30.7176 24.52 31.1745 24.52 31.7392C24.52 32.3039 24.977 32.7609 25.5417 32.7609C29.3141 32.7609 30.2423 32.7609 30.4348 32.7609C30.4686 32.7609 30.4797 32.7609 30.4795 32.7609C30.585 32.7609 30.9116 32.7609 31.8077 32.7609C33.4978 32.7609 34.8727 31.386 34.8727 29.6959V5.17628C34.8727 3.4862 33.4978 2.11133 31.8077 2.11133Z" fill="url(#paint1_linear)"/>
<path d="M6.86437 2.71189C6.72365 2.4009 6.43684 2.18063 6.09997 2.12505C5.76309 2.06934 5.42043 2.1854 5.18729 2.43475C4.054 3.64683 3.73286 5.479 4.52008 7.0535L7.92239 14.5236L10.1134 9.76653L6.86437 2.71189Z" fill="#ED8383"/>
</g>
<defs>
<linearGradient id="paint0_linear" x1="3.00388" y1="32.429" x2="25.3179" y2="20.5727" gradientUnits="userSpaceOnUse">
<stop stop-color="#ED8383"/>
<stop offset="1" stop-color="#FFC2C2"/>
</linearGradient>
<linearGradient id="paint1_linear" x1="26.2111" y1="32.429" x2="40.9964" y2="28.0064" gradientUnits="userSpaceOnUse">
<stop stop-color="#ED8383"/>
<stop offset="1" stop-color="#FFC2C2"/>
</linearGradient>
<clipPath id="clip0">
<rect width="34.8724" height="34.8724" fill="white"/>
</clipPath>
</defs>
</svg>
