<svg width="50" height="50" viewBox="0 0 50 50" fill="none" xmlns="http://www.w3.org/2000/svg">
<g clip-path="url(#clip0)">
<path d="M17.5014 9.96437L17.5013 13.0283L19.544 13.0284L19.544 9.96437C19.544 9.3998 20.0009 8.94293 20.5654 8.94303C21.1299 8.94303 21.5867 9.3998 21.5867 9.96437L21.5868 13.0283L23.6295 13.0283L23.6295 9.96427C23.6296 9.3998 24.0863 8.94303 24.6508 8.94293C25.2154 8.94293 25.6722 9.3998 25.6722 9.96437L25.6722 13.0283L27.7149 13.0284L27.7149 9.96437C27.7149 9.3998 28.1718 8.94294 28.7363 8.94303C29.3008 8.94303 29.7576 9.3998 29.7576 9.96437L29.7577 13.0283L31.8002 13.0284L31.8002 9.96432C31.8001 9.39985 32.257 8.94298 32.8216 8.94298C33.3861 8.94298 33.843 9.39985 33.8429 9.96432L33.8429 14.0498C33.843 15.7393 32.4685 17.1138 30.7789 17.1137L18.5228 17.1138C16.8332 17.1137 15.4588 15.7393 15.4587 14.0498L15.4587 9.96432C15.4588 9.39985 15.9156 8.94308 16.4801 8.94298C17.0445 8.94298 17.5014 9.3998 17.5014 9.96437Z" fill="#E66464"/>
<path d="M30.7792 19.1564C31.9332 19.1564 32.9872 18.7569 33.8434 18.109L33.8434 21.6514C33.8434 24.467 31.5523 26.7581 28.7366 26.7581L20.5658 26.7581C17.75 26.7581 15.459 24.4671 15.459 21.6513L15.459 18.1089C16.3153 18.7571 17.3691 19.1564 18.5231 19.1564L30.7792 19.1564Z" fill="url(#paint0_linear)"/>
<path d="M23.6293 39.0144C23.6293 38.4508 24.0872 37.993 24.6507 37.993C25.2143 37.9929 25.6721 38.4507 25.672 39.0144C25.672 39.5779 25.2142 40.0357 24.6507 40.0357C24.0872 40.0357 23.6293 39.5779 23.6293 39.0144Z" fill="#ED8383"/>
<path d="M23.6295 36.1385L23.6295 34.9289C23.6295 34.3654 24.0873 33.9076 24.6509 33.9076C25.2145 33.9077 25.6722 34.3654 25.6723 34.929L25.6722 36.1385C25.3512 36.0239 25.0107 35.9503 24.651 35.9504C24.2911 35.9503 23.9506 36.024 23.6295 36.1385Z" fill="#ED8383"/>
<path d="M24.6509 49.2279C24.0863 49.2279 23.6294 48.771 23.6294 48.2065L23.6294 45.0393C20.1739 44.5384 17.5014 41.5851 17.5014 37.9931L17.5014 28.0839C18.4336 28.5302 19.4647 28.801 20.5653 28.8011L28.7361 28.8011C29.8368 28.801 30.8678 28.5302 31.8002 28.0838L31.8003 37.993C31.8003 41.5852 29.1276 44.5384 25.6721 45.0393L25.6722 48.2066C25.6722 48.7711 25.2153 49.2279 24.6509 49.2279ZM27.7149 39.0144L27.7149 34.929C27.7149 33.2394 26.3405 31.865 24.6508 31.865C22.9612 31.865 21.5868 33.2394 21.5868 34.929L21.5868 39.0144C21.5867 40.704 22.9612 42.0785 24.6508 42.0784C26.3405 42.0784 27.7149 40.704 27.7149 39.0144Z" fill="url(#paint1_linear)"/>
</g>
<defs>
<linearGradient id="paint0_linear" x1="22.8181" y1="30.8618" x2="21.6185" y2="11.0982" gradientUnits="userSpaceOnUse">
<stop stop-color="#ED8383"/>
<stop offset="1" stop-color="#FFC2C2"/>
</linearGradient>
<linearGradient id="paint1_linear" x1="22.461" y1="47.1504" x2="13.4207" y2="38.1642" gradientUnits="userSpaceOnUse">
<stop stop-color="#ED8383"/>
<stop offset="1" stop-color="#FFC2C2"/>
</linearGradient>
<clipPath id="clip0">
<rect width="34.862" height="34.862" fill="white" transform="matrix(-0.707107 -0.707107 -0.707107 0.707107 49.3022 25)"/>
</clipPath>
</defs>
</svg>
