<svg width="39" height="41" viewBox="0 0 39 41" fill="none" xmlns="http://www.w3.org/2000/svg">
<path d="M27.7093 18.5466C27.8357 17.9855 27.917 17.4613 28.0885 16.9554C28.4226 15.9528 29.0726 15.1802 29.9484 14.6099C30.0928 14.5179 30.147 14.4167 30.147 14.242C30.138 13.1566 30.1651 12.0712 30.138 10.9767C30.0477 7.44468 28.6392 4.57492 25.9307 2.35821C24.7479 1.39243 23.4027 0.739374 21.94 0.35306C20.351 -0.0608481 18.7529 -0.116036 17.1368 0.21509C14.8435 0.684186 12.8934 1.78794 11.2863 3.51715C9.95907 4.95204 9.07427 6.64446 8.62284 8.56683C8.42421 9.40384 8.33393 10.2501 8.3249 11.1147C8.3249 12.154 8.3249 13.1934 8.31587 14.242C8.31587 14.4259 8.37907 14.5179 8.52353 14.6099C9.8417 15.4929 10.555 16.7438 10.6633 18.3443C10.6814 18.5558 10.7807 18.5466 10.9251 18.5466C12.4058 18.5466 13.8865 18.5466 15.3672 18.5374C15.6019 18.5374 15.6651 18.611 15.6561 18.8409C15.6471 19.54 15.6561 20.239 15.6471 20.9289C15.6471 21.1128 15.7013 21.1772 15.8909 21.1772C18.1119 21.168 20.342 21.168 22.563 21.1772C22.7616 21.1772 22.8068 21.1036 22.7977 20.9197C22.7887 20.2114 22.7977 19.5124 22.7887 18.8041C22.7887 18.5926 22.8519 18.5282 23.0596 18.5282C24.5312 18.5374 26.0029 18.5282 27.4836 18.5282C27.5829 18.5466 27.6732 18.5466 27.7093 18.5466Z" fill="url(#paint0_linear)"/>
<path d="M19.2406 23.5779C16.6313 23.5779 14.0221 23.5779 11.4128 23.5779C9.60707 23.5779 8.12638 24.6356 7.58467 26.3925C6.96169 28.3976 7.98193 30.5867 9.9953 31.3042C10.4467 31.4697 10.9523 31.5525 11.4308 31.5525C16.6313 31.5709 21.8318 31.5617 27.0323 31.5617C28.856 31.5617 30.2555 30.5407 30.8694 28.7931C31.3931 27.3122 30.8243 25.4083 29.5874 24.4517C28.8199 23.863 27.9712 23.5779 27.0142 23.5779C24.432 23.5779 21.8318 23.5779 19.2406 23.5779Z" fill="#E76464"/>
<path d="M26.7705 40.8886C26.7344 39.5273 26.2649 38.396 25.3259 37.4578C24.6759 36.8139 23.8994 36.4 23.0056 36.2161C22.8431 36.1793 22.8069 36.1057 22.8069 35.9585C22.816 35.3699 22.8069 34.7812 22.816 34.1925C22.816 34.0086 22.7618 33.9534 22.5812 33.9534C20.3602 33.9626 18.1301 33.9626 15.9091 33.9534C15.7014 33.9534 15.6563 34.027 15.6653 34.2201C15.6743 34.7904 15.6653 35.3699 15.6743 35.9401C15.6743 36.0965 15.6382 36.1793 15.4667 36.2161C13.7783 36.6024 12.6227 37.6325 11.9997 39.2698C11.8101 39.7757 11.7018 40.3092 11.7288 40.8794C16.7307 40.8886 21.7325 40.8886 26.7705 40.8886Z" fill="#ED8383"/>
<path d="M35.474 24.4518C35.474 23.3664 35.474 22.2811 35.474 21.1865C35.474 20.9933 35.5372 20.929 35.7177 20.9382C36.2504 20.9657 36.7831 20.9382 37.2707 20.6622C38.1555 20.1563 38.643 19.1078 38.4353 18.1328C38.2096 17.0842 37.388 16.3392 36.3136 16.2564C35.7719 16.2196 35.2212 16.238 34.6704 16.238C33.9662 16.238 33.2529 16.2288 32.5487 16.238C31.4472 16.2472 30.6166 16.8359 30.2645 17.8384C29.7679 19.2365 30.7881 20.8278 32.2417 20.929C32.4494 20.9474 32.6661 20.9474 32.8737 20.9382C33.0724 20.929 33.1356 20.9841 33.1356 21.1957C33.1265 22.603 33.1175 24.0103 33.1356 25.4268C33.1356 25.7303 33.2529 26.0246 33.289 26.319C33.3432 26.7789 33.3884 27.248 33.4154 27.7079C33.4245 27.8918 33.4516 27.9654 33.6502 27.9654C34.1919 27.9562 34.7336 27.9562 35.2753 27.9654C35.4469 27.9654 35.492 27.901 35.492 27.7354C35.474 26.6409 35.474 25.5463 35.474 24.4518Z" fill="#ED8383"/>
<path d="M4.16256 16.2192C3.39513 16.2468 2.6277 16.2284 1.86929 16.3112C0.903234 16.4124 0.0906582 17.3874 0.00940132 18.3624C-0.117 19.8524 1.06575 20.993 2.39295 20.947C2.98884 20.9286 2.98884 20.947 2.98884 21.5541C2.98884 23.5868 2.98884 25.6287 2.97981 27.6615C2.97981 27.8914 3.03399 27.965 3.26873 27.9558C3.79239 27.9374 4.32508 27.9466 4.84874 27.9558C5.00222 27.9558 5.05639 27.9098 5.05639 27.7443C5.03833 27.0544 5.11959 26.3738 5.32725 25.7115C5.34531 25.6471 5.34531 25.5736 5.34531 25.5092C5.34531 24.0743 5.35434 22.6486 5.34531 21.2137C5.34531 20.9838 5.41754 20.9286 5.6252 20.9378C6.15788 20.9746 6.67251 20.9194 7.15103 20.6435C8.00875 20.1468 8.49629 19.1074 8.29766 18.1968C8.05389 17.0746 7.28646 16.3388 6.18497 16.2652C5.50782 16.2192 4.83068 16.256 4.15353 16.256C4.16256 16.2468 4.16256 16.2284 4.16256 16.2192Z" fill="#ED8383"/>
<defs>
<linearGradient id="paint0_linear" x1="26.5839" y1="20.9479" x2="8.05607" y2="4.03122" gradientUnits="userSpaceOnUse">
<stop stop-color="#ED8383"/>
<stop offset="1" stop-color="#FFC2C2"/>
</linearGradient>
</defs>
</svg>
